<?xml version="1.0" encoding="utf-8"?>
<!-- Generator: Adobe Illustrator 22.0.1, SVG Export Plug-In . SVG Version: 6.00 Build 0)  -->
<svg version="1.1" id="Layer_1" xmlns="http://www.w3.org/2000/svg" xmlns:xlink="http://www.w3.org/1999/xlink" x="0px" y="0px"
	 viewBox="0 0 98.1 51.7" style="enable-background:new 0 0 98.1 51.7;" xml:space="preserve">
<style type="text/css">
	.st0{fill:#ED1E79;}
	.st1{fill:#FCEE21;}
	.st2{fill:#39B54A;}
	.st3{fill:#5DD1F9;}
</style>
<g>
	<g>
		<path class="st0" d="M39.4,25.1L30,0l26.4,4.4L39.4,25.1z M36.2,5.1l4.5,12.1l8.2-10L36.2,5.1z"/>
	</g>
	<g>
		<path class="st1" d="M3.9,48.6c-4.9-4.4-5.3-12-0.9-16.9c4.4-4.9,12-5.3,16.9-0.9c4.9,4.4,5.3,12,0.9,16.9
			C16.4,52.6,8.8,53,3.9,48.6z M17.2,33.9C14,30.9,9,31.2,6,34.4c-2.9,3.2-2.7,8.3,0.6,11.2c3.2,2.9,8.3,2.7,11.2-0.6
			C20.7,41.8,20.5,36.8,17.2,33.9z"/>
	</g>
	<g>
		<rect x="44.2" y="32.5" transform="matrix(0.7656 -0.6433 0.6433 0.7656 -8.9692 44.4025)" class="st2" width="24.5" height="4"/>
	</g>
	<polygon class="st3" points="98.1,34.2 96.3,30.6 87.1,35.3 82.5,26.2 78.9,28 83.6,37.1 74.4,41.8 76.3,45.4 85.4,40.7 90.1,49.8 
		93.6,48 88.9,38.9 	"/>
</g>
</svg>
